<svg version="1.2" xmlns="http://www.w3.org/2000/svg" viewBox="0 0 252 258" width="252" height="258"><style>.a{fill:#ececec}.b{fill:#fff}.c{fill:#e6e6e6}.d{fill:#ccc}.e{fill:#f9f9f9}.f{fill:#414141}.g{fill:#e5e5e5}.h{fill:#393366;stroke:#0066ff;stroke-linecap:round;stroke-linejoin:round;stroke-width:3.4}.i{fill:#393366;stroke:#0066ff;stroke-linecap:round;stroke-width:3.6}.j{fill:#0066ff}</style><path class="a" d="m245.1 91.8v105.9l-152.7-88.2v-105.8z"/><path class="b" d="m98.5 105.9v-91.7l140.5 81.2v91.7z"/><path class="c" d="m92.4 3.7l6.1-3.6 152.7 88.2-6.1 3.5z"/><path class="d" d="m245.1 91.8l6.1-3.5v105.8l-6.1 3.6z"/><path class="a" d="m245.1 197.7l-91.6 52.9-152.7-88.2 91.6-52.9z"/><path class="a" d="m153.5 250.6v7l-152.7-88.2v-7z"/><path class="d" d="m153.5 257.6v-7l97.7-56.5v7.1z"/><path class="e" d="m92.4 116.5l140.5 81.2-55 31.7-140.5-81.1z"/><path class="d" d="m86.3 183.5l30.5 17.7-18.3 10.6-30.5-17.7z"/><path class="f" d="m245.1 91.8v105.9l-152.7-88.2v-105.8z"/><path class="c" d="m92.4 3.7l6.1-3.6 152.7 88.2-6.1 3.5z"/><path class="d" d="m245.1 91.8l6.1-3.5v105.8l-6.1 3.6z"/><path class="a" d="m245.1 197.7l-91.6 52.9-152.7-88.2 91.6-52.9z"/><path class="g" d="m153.5 250.6v7l-152.7-88.2v-7z"/><path class="d" d="m153.5 257.6v-7l97.7-56.5v7.1z"/><path class="d" d="m92.4 116.6l140.4 81.1-54.9 31.6-140.3-81z"/><path class="d" d="m86.3 183.5l30.5 17.7-18.3 10.6-30.5-17.7z"/><path class="b" d="m98.5 105.9v-91.7l140.5 81.2v91.7z"/><path fill-rule="evenodd" class="h" d="m147.9 88.6l9.7-2.2"/><path fill-rule="evenodd" class="h" d="m147.9 88.6l9.7 13.4"/><path fill-rule="evenodd" class="h" d="m189.6 112.7l-9.7-13.4"/><path fill-rule="evenodd" class="h" d="m189.6 112.7l-9.7 2.2"/><path fill-rule="evenodd" class="i" d="m165.5 112.3l6.5-23.3"/><path fill-rule="evenodd" class="h" d="m147.9 88.6l9.7-2.2"/><path fill-rule="evenodd" class="h" d="m147.9 88.6l9.7 13.4"/><path fill-rule="evenodd" class="h" d="m189.6 112.7l-9.7-13.4"/><path fill-rule="evenodd" class="h" d="m189.6 112.7l-9.7 2.2"/><path fill-rule="evenodd" class="j" d="m172.8 87.8q0.4 0.4 0.6 0.9 0.3 0.5 0.3 0.9 0.1 0.5 0 0.8l-6.4 23.3c-0.1 0.5-0.4 0.7-0.8 0.7-0.4 0-0.9-0.2-1.4-0.5-0.4-0.4-0.9-1-1.1-1.5-0.2-0.6-0.3-1.1-0.2-1.5l6.4-23.3q0.1-0.3 0.3-0.5 0.1-0.1 0.4-0.2 0.2 0 0.5 0 0.3 0.1 0.6 0.3 0.4 0.2 0.8 0.6z"/></svg>